<mxfile host="app.diagrams.net" modified="2022-10-21T13:06:54.238Z" agent="5.0 (Macintosh; Intel Mac OS X 10_15_7) AppleWebKit/537.36 (KHTML, like Gecko) Chrome/106.0.0.0 Safari/537.36" etag="_Q9BaP9Y5VB8yBW5yCtU" version="20.4.0" type="github">
  <diagram id="20wjOX3hQF94kn0S1W88" name="第 1 页">
    <mxGraphModel dx="1122" dy="798" grid="1" gridSize="10" guides="1" tooltips="1" connect="1" arrows="1" fold="1" page="1" pageScale="1" pageWidth="1169" pageHeight="1654" math="0" shadow="0">
      <root>
        <mxCell id="0" />
        <mxCell id="1" parent="0" />
        <mxCell id="P1Jh1QPIeSn1NVpw_SoJ-2" value="" style="endArrow=classic;html=1;rounded=0;strokeWidth=3;" edge="1" parent="1">
          <mxGeometry width="50" height="50" relative="1" as="geometry">
            <mxPoint x="120" y="410" as="sourcePoint" />
            <mxPoint x="120" y="80" as="targetPoint" />
          </mxGeometry>
        </mxCell>
        <mxCell id="P1Jh1QPIeSn1NVpw_SoJ-3" value="" style="endArrow=classic;html=1;rounded=0;strokeWidth=3;" edge="1" parent="1">
          <mxGeometry width="50" height="50" relative="1" as="geometry">
            <mxPoint x="70" y="360" as="sourcePoint" />
            <mxPoint x="1000" y="360" as="targetPoint" />
          </mxGeometry>
        </mxCell>
        <mxCell id="P1Jh1QPIeSn1NVpw_SoJ-4" value="&lt;b&gt;&lt;font style=&quot;font-size: 32px;&quot;&gt;128&lt;/font&gt;&lt;/b&gt;" style="text;html=1;strokeColor=none;fillColor=none;align=center;verticalAlign=middle;whiteSpace=wrap;rounded=0;" vertex="1" parent="1">
          <mxGeometry x="170" y="100" width="60" height="30" as="geometry" />
        </mxCell>
        <mxCell id="P1Jh1QPIeSn1NVpw_SoJ-5" value="&lt;div style=&quot;text-align: center;&quot;&gt;&lt;span style=&quot;background-color: initial;&quot;&gt;&lt;b&gt;64&lt;/b&gt;&lt;/span&gt;&lt;/div&gt;" style="text;whiteSpace=wrap;html=1;fontSize=32;" vertex="1" parent="1">
          <mxGeometry x="290" y="90" width="90" height="60" as="geometry" />
        </mxCell>
        <mxCell id="P1Jh1QPIeSn1NVpw_SoJ-6" value="&lt;div style=&quot;text-align: center;&quot;&gt;&lt;b&gt;32&lt;/b&gt;&lt;/div&gt;" style="text;whiteSpace=wrap;html=1;fontSize=32;" vertex="1" parent="1">
          <mxGeometry x="400" y="90" width="90" height="60" as="geometry" />
        </mxCell>
        <mxCell id="P1Jh1QPIeSn1NVpw_SoJ-7" value="&lt;div style=&quot;text-align: center;&quot;&gt;&lt;b&gt;16&lt;/b&gt;&lt;/div&gt;" style="text;whiteSpace=wrap;html=1;fontSize=32;" vertex="1" parent="1">
          <mxGeometry x="510" y="90" width="90" height="60" as="geometry" />
        </mxCell>
        <mxCell id="P1Jh1QPIeSn1NVpw_SoJ-8" value="&lt;div style=&quot;text-align: center;&quot;&gt;&lt;b&gt;8&lt;/b&gt;&lt;/div&gt;" style="text;whiteSpace=wrap;html=1;fontSize=32;" vertex="1" parent="1">
          <mxGeometry x="630" y="90" width="90" height="60" as="geometry" />
        </mxCell>
        <mxCell id="P1Jh1QPIeSn1NVpw_SoJ-9" value="&lt;div style=&quot;text-align: center;&quot;&gt;&lt;b&gt;4&lt;/b&gt;&lt;/div&gt;" style="text;whiteSpace=wrap;html=1;fontSize=32;" vertex="1" parent="1">
          <mxGeometry x="730" y="90" width="90" height="60" as="geometry" />
        </mxCell>
        <mxCell id="P1Jh1QPIeSn1NVpw_SoJ-10" value="&lt;div style=&quot;text-align: center;&quot;&gt;&lt;b&gt;2&lt;/b&gt;&lt;/div&gt;" style="text;whiteSpace=wrap;html=1;fontSize=32;" vertex="1" parent="1">
          <mxGeometry x="820" y="90" width="90" height="60" as="geometry" />
        </mxCell>
        <mxCell id="P1Jh1QPIeSn1NVpw_SoJ-11" value="&lt;div style=&quot;text-align: center;&quot;&gt;&lt;b&gt;1&lt;/b&gt;&lt;/div&gt;" style="text;whiteSpace=wrap;html=1;fontSize=32;" vertex="1" parent="1">
          <mxGeometry x="910" y="90" width="90" height="60" as="geometry" />
        </mxCell>
        <mxCell id="P1Jh1QPIeSn1NVpw_SoJ-12" value="&lt;b&gt;&lt;font color=&quot;#ff0000&quot;&gt;7&lt;/font&gt;&lt;/b&gt;" style="text;html=1;strokeColor=none;fillColor=none;align=center;verticalAlign=middle;whiteSpace=wrap;rounded=0;fontSize=32;" vertex="1" parent="1">
          <mxGeometry x="60" y="180" width="60" height="30" as="geometry" />
        </mxCell>
        <mxCell id="P1Jh1QPIeSn1NVpw_SoJ-13" value="&lt;b&gt;&lt;font color=&quot;#ff0000&quot;&gt;10&lt;/font&gt;&lt;/b&gt;" style="text;html=1;strokeColor=none;fillColor=none;align=center;verticalAlign=middle;whiteSpace=wrap;rounded=0;fontSize=32;" vertex="1" parent="1">
          <mxGeometry x="53" y="280" width="60" height="30" as="geometry" />
        </mxCell>
        <mxCell id="P1Jh1QPIeSn1NVpw_SoJ-14" value="0" style="text;html=1;align=center;verticalAlign=middle;resizable=0;points=[];autosize=1;strokeColor=none;fillColor=none;fontSize=32;" vertex="1" parent="1">
          <mxGeometry x="180" y="170" width="40" height="50" as="geometry" />
        </mxCell>
        <mxCell id="P1Jh1QPIeSn1NVpw_SoJ-15" value="0" style="text;html=1;align=center;verticalAlign=middle;resizable=0;points=[];autosize=1;strokeColor=none;fillColor=none;fontSize=32;" vertex="1" parent="1">
          <mxGeometry x="290" y="170" width="40" height="50" as="geometry" />
        </mxCell>
        <mxCell id="P1Jh1QPIeSn1NVpw_SoJ-16" value="0" style="text;html=1;align=center;verticalAlign=middle;resizable=0;points=[];autosize=1;strokeColor=none;fillColor=none;fontSize=32;" vertex="1" parent="1">
          <mxGeometry x="400" y="170" width="40" height="50" as="geometry" />
        </mxCell>
        <mxCell id="P1Jh1QPIeSn1NVpw_SoJ-17" value="0" style="text;html=1;align=center;verticalAlign=middle;resizable=0;points=[];autosize=1;strokeColor=none;fillColor=none;fontSize=32;" vertex="1" parent="1">
          <mxGeometry x="510" y="170" width="40" height="50" as="geometry" />
        </mxCell>
        <mxCell id="P1Jh1QPIeSn1NVpw_SoJ-18" value="&lt;b&gt;&lt;font color=&quot;#ff0000&quot;&gt;0&lt;/font&gt;&lt;/b&gt;" style="text;html=1;align=center;verticalAlign=middle;resizable=0;points=[];autosize=1;strokeColor=none;fillColor=none;fontSize=32;" vertex="1" parent="1">
          <mxGeometry x="620" y="170" width="40" height="50" as="geometry" />
        </mxCell>
        <mxCell id="P1Jh1QPIeSn1NVpw_SoJ-19" value="&lt;font color=&quot;#ff0000&quot;&gt;&lt;b&gt;1&lt;/b&gt;&lt;/font&gt;" style="text;html=1;align=center;verticalAlign=middle;resizable=0;points=[];autosize=1;strokeColor=none;fillColor=none;fontSize=32;" vertex="1" parent="1">
          <mxGeometry x="720" y="172" width="40" height="50" as="geometry" />
        </mxCell>
        <mxCell id="P1Jh1QPIeSn1NVpw_SoJ-20" value="&lt;font color=&quot;#ff0000&quot;&gt;&lt;b&gt;1&lt;/b&gt;&lt;/font&gt;" style="text;html=1;align=center;verticalAlign=middle;resizable=0;points=[];autosize=1;strokeColor=none;fillColor=none;fontSize=32;" vertex="1" parent="1">
          <mxGeometry x="810" y="172" width="40" height="50" as="geometry" />
        </mxCell>
        <mxCell id="P1Jh1QPIeSn1NVpw_SoJ-21" value="&lt;font color=&quot;#ff0000&quot;&gt;&lt;b&gt;1&lt;/b&gt;&lt;/font&gt;" style="text;html=1;align=center;verticalAlign=middle;resizable=0;points=[];autosize=1;strokeColor=none;fillColor=none;fontSize=32;" vertex="1" parent="1">
          <mxGeometry x="900" y="172" width="40" height="50" as="geometry" />
        </mxCell>
        <mxCell id="P1Jh1QPIeSn1NVpw_SoJ-22" value="0" style="text;html=1;align=center;verticalAlign=middle;resizable=0;points=[];autosize=1;strokeColor=none;fillColor=none;fontSize=32;" vertex="1" parent="1">
          <mxGeometry x="180" y="270" width="40" height="50" as="geometry" />
        </mxCell>
        <mxCell id="P1Jh1QPIeSn1NVpw_SoJ-23" value="0" style="text;html=1;align=center;verticalAlign=middle;resizable=0;points=[];autosize=1;strokeColor=none;fillColor=none;fontSize=32;" vertex="1" parent="1">
          <mxGeometry x="290" y="270" width="40" height="50" as="geometry" />
        </mxCell>
        <mxCell id="P1Jh1QPIeSn1NVpw_SoJ-24" value="0" style="text;html=1;align=center;verticalAlign=middle;resizable=0;points=[];autosize=1;strokeColor=none;fillColor=none;fontSize=32;" vertex="1" parent="1">
          <mxGeometry x="400" y="270" width="40" height="50" as="geometry" />
        </mxCell>
        <mxCell id="P1Jh1QPIeSn1NVpw_SoJ-25" value="0" style="text;html=1;align=center;verticalAlign=middle;resizable=0;points=[];autosize=1;strokeColor=none;fillColor=none;fontSize=32;" vertex="1" parent="1">
          <mxGeometry x="510" y="270" width="40" height="50" as="geometry" />
        </mxCell>
        <mxCell id="P1Jh1QPIeSn1NVpw_SoJ-26" value="&lt;b&gt;&lt;font color=&quot;#ff0000&quot;&gt;1&lt;/font&gt;&lt;/b&gt;" style="text;html=1;align=center;verticalAlign=middle;resizable=0;points=[];autosize=1;strokeColor=none;fillColor=none;fontSize=32;" vertex="1" parent="1">
          <mxGeometry x="620" y="270" width="40" height="50" as="geometry" />
        </mxCell>
        <mxCell id="P1Jh1QPIeSn1NVpw_SoJ-27" value="&lt;font color=&quot;#ff0000&quot;&gt;&lt;b&gt;0&lt;/b&gt;&lt;/font&gt;" style="text;html=1;align=center;verticalAlign=middle;resizable=0;points=[];autosize=1;strokeColor=none;fillColor=none;fontSize=32;" vertex="1" parent="1">
          <mxGeometry x="720" y="272" width="40" height="50" as="geometry" />
        </mxCell>
        <mxCell id="P1Jh1QPIeSn1NVpw_SoJ-28" value="&lt;b&gt;&lt;font color=&quot;#ff0000&quot;&gt;1&lt;/font&gt;&lt;/b&gt;" style="text;html=1;align=center;verticalAlign=middle;resizable=0;points=[];autosize=1;strokeColor=none;fillColor=none;fontSize=32;" vertex="1" parent="1">
          <mxGeometry x="810" y="273" width="40" height="50" as="geometry" />
        </mxCell>
        <mxCell id="P1Jh1QPIeSn1NVpw_SoJ-29" value="&lt;b&gt;&lt;font color=&quot;#ff0000&quot;&gt;1&lt;/font&gt;&lt;/b&gt;" style="text;html=1;align=center;verticalAlign=middle;resizable=0;points=[];autosize=1;strokeColor=none;fillColor=none;fontSize=32;" vertex="1" parent="1">
          <mxGeometry x="900" y="273" width="40" height="50" as="geometry" />
        </mxCell>
        <mxCell id="P1Jh1QPIeSn1NVpw_SoJ-30" value="&lt;b&gt;0 1 1 1&lt;br&gt;1 0 1 0&lt;br&gt;&amp;amp; ------------- 2&lt;br&gt;0 0 1 0&lt;br&gt;&lt;/b&gt;" style="text;html=1;align=center;verticalAlign=middle;resizable=0;points=[];autosize=1;strokeColor=none;fillColor=none;fontSize=32;fontColor=#FF0000;" vertex="1" parent="1">
          <mxGeometry x="140" y="440" width="220" height="170" as="geometry" />
        </mxCell>
        <mxCell id="P1Jh1QPIeSn1NVpw_SoJ-31" value="&lt;b&gt;0 1 1 1&lt;br&gt;1 0 1 0&lt;br&gt;| ------------- 15&lt;br&gt;1 1 1 1&lt;br&gt;&lt;/b&gt;" style="text;html=1;align=center;verticalAlign=middle;resizable=0;points=[];autosize=1;strokeColor=none;fillColor=none;fontSize=32;fontColor=#FF0000;" vertex="1" parent="1">
          <mxGeometry x="470" y="440" width="220" height="170" as="geometry" />
        </mxCell>
        <mxCell id="P1Jh1QPIeSn1NVpw_SoJ-32" value="&lt;b&gt;0 1 1 1&lt;br&gt;1 0 1 0&lt;br&gt;^ ------------ 13&lt;br&gt;1 1 0 1&lt;br&gt;&lt;/b&gt;" style="text;html=1;align=center;verticalAlign=middle;resizable=0;points=[];autosize=1;strokeColor=none;fillColor=none;fontSize=32;fontColor=#FF0000;" vertex="1" parent="1">
          <mxGeometry x="770" y="440" width="220" height="170" as="geometry" />
        </mxCell>
        <mxCell id="P1Jh1QPIeSn1NVpw_SoJ-33" value="&lt;b&gt;&amp;amp; 两位为1则1&amp;nbsp; &amp;nbsp; &amp;nbsp; |&amp;nbsp; 两位为0则0&amp;nbsp; &amp;nbsp; &amp;nbsp;^ 两位相异为1,相同为0&lt;/b&gt;" style="text;html=1;align=center;verticalAlign=middle;resizable=0;points=[];autosize=1;strokeColor=none;fillColor=none;fontSize=32;fontColor=#FF0000;" vertex="1" parent="1">
          <mxGeometry x="135" y="630" width="840" height="50" as="geometry" />
        </mxCell>
      </root>
    </mxGraphModel>
  </diagram>
</mxfile>
